Coordinates
version=1
nRows=9
nColumns=63
inDegrees=yes

Units are S.I. units (second, meters, Newtons, ...)
If the header above contains a line with 'inDegrees', this indicates whether rotational values are in degrees (yes) or radians (no).

endheader
time	pelvis_tilt	pelvis_list	pelvis_rotation	pelvis_tx	pelvis_ty	pelvis_tz	hip_flexion_r	hip_adduction_r	hip_rotation_r	knee_angle_r	knee_angle_r_beta	ankle_angle_r	subtalar_angle_r	mtp_angle_r	hip_flexion_l	hip_adduction_l	hip_rotation_l	knee_angle_l	knee_angle_l_beta	ankle_angle_l	subtalar_angle_l	mtp_angle_l	L5_S1_Flex_Ext	L5_S1_Lat_Bending	L5_S1_axial_rotation	L4_L5_Flex_Ext	L4_L5_Lat_Bending	L4_L5_axial_rotation	L3_L4_Flex_Ext	L3_L4_Lat_Bending	L3_L4_axial_rotation	L2_L3_Flex_Ext	L2_L3_Lat_Bending	L2_L3_axial_rotation	L1_L2_Flex_Ext	L1_L2_Lat_Bending	L1_L2_axial_rotation	L1_T12_Flex_Ext	L1_T12_Lat_Bending	L1_T12_axial_rotation	Abs_r3	Abs_r2	Abs_r1	Abs_t1	Abs_t2	neck_flexion	neck_bending	neck_rotation	arm_flex_r	arm_add_r	arm_rot_r	elbow_flex_r	pro_sup_r	wrist_flex_r	wrist_dev_r	arm_flex_l	arm_add_l	arm_rot_l	elbow_flex_l	pro_sup_l	wrist_flex_l	wrist_dev_l
      1.22033898	     -3.56505981	     -2.06505950	     72.76886626	      0.27835692	      0.71116951	      0.67673765	      4.53353147	     -2.02307986	     -2.74894436	     14.91431878	      0.26030397	     18.29741239	     15.44419411	      0.00000000	      5.47628211	     -0.36901283	    -23.54108152	     19.79741060	      0.34553000	     19.46663320	     -4.16190681	      0.00000000	      0.16891123	      0.04517237	      0.71205097	      0.31368504	      0.06007925	      0.75655415	      0.27750426	      0.10983210	      0.75655415	      0.19304864	      0.10983210	      0.62304460	      0.15685097	      0.09211549	      0.57854141	      0.09651588	      0.06997200	      0.53403822	      1.20651602	      0.51099887	      3.96021386	      0.00000000	      0.00000000	     26.28003259	      4.96067524	      9.78400920	     13.91109280	      0.41134399	     58.17610498	     95.95556199	     86.33711253	     34.42984972	     22.77346005	      8.87635431	     -5.28352701	     39.07058870	    104.18153124	     20.92791981	     -6.54593497	     34.07868627
      1.23728814	     -3.52663456	     -2.17778630	     73.41674080	      0.27650195	      0.71055333	      0.67849792	      4.88740671	     -2.01220153	     -3.31220856	     15.28925250	      0.26684780	     18.42635324	     15.09448980	      0.00000000	      6.00753078	     -0.34045211	    -22.32720540	     20.25598730	      0.35353367	     18.88995955	     -5.22576735	      0.00000000	      0.17478659	      0.02061041	      0.73491515	      0.32459618	      0.02741184	      0.78084735	      0.28715689	      0.05011214	      0.78084735	      0.19976360	      0.05011214	      0.64305075	      0.16230683	      0.04202874	      0.59711856	      0.09987306	      0.03192552	      0.55118636	      1.24848316	      0.23314903	      4.08737758	      0.00000000	      0.00000000	     26.05419299	      5.88301827	      9.69594206	     13.98571372	      0.36804764	     57.10792616	     95.89487455	     86.56133301	     33.12934393	     22.36951230	     10.13610266	     -3.69473947	     38.50762347	    102.81776898	      9.44575842	    -10.42577291	     33.82899795
      1.25423729	     -3.43583229	     -2.36915677	     74.20548464	      0.27429708	      0.71005709	      0.68022514	      5.29411030	     -1.95160896	     -3.97096140	     15.65144086	      0.27316918	     18.43636192	     14.69975674	      0.00000000	      6.55098745	     -0.37878563	    -21.21171391	     20.61497671	      0.35979922	     18.41920305	     -5.70359087	      0.00000000	      0.18839826	      0.01099596	      0.82748299	      0.34987441	      0.01462463	      0.87920068	      0.30951951	      0.02673559	      0.87920068	      0.21532037	      0.02673559	      0.72404762	      0.17494663	      0.02242297	      0.67232993	      0.10765077	      0.01703275	      0.62061224	      1.34570995	      0.12438854	      4.60221216	      0.00000000	      0.00000000	     25.95226324	      6.61500295	      9.76709302	     13.59378103	     -0.01056806	     56.16672372	     96.56726060	     87.02341307	     30.75326704	     22.20598039	     11.21919752	     -3.43764739	     36.36831113	    101.87764300	      7.56495494	     -8.95012843	     33.55085900
      1.27118644	     -3.28230957	     -2.36241441	     74.89221177	      0.27227746	      0.70989570	      0.68188721	      5.49504059	     -1.88535114	     -4.55445109	     16.04221704	      0.27998951	     18.62542693	     14.34827706	      0.00000000	      6.77466367	     -0.44905866	    -20.54017623	     20.82616600	      0.36348517	     18.09607345	     -5.80588520	      0.00000000	      0.16753300	      0.00413306	      0.96586923	      0.31112553	      0.00549696	      1.02623605	      0.27523996	      0.01004911	      1.02623605	      0.19147346	      0.01004911	      0.84513557	      0.15557114	      0.00842813	      0.78476875	      0.09572836	      0.00640210	      0.72440192	      1.19667146	      0.04675395	      5.37187487	      0.00000000	      0.00000000	     25.91751535	      6.77914056	      9.61442989	     12.74218984	     -0.33196257	     55.19148465	     97.36558890	     87.24497878	     29.18736314	     21.90731502	     12.20326123	     -3.98193303	     32.81721410	    101.51392063	      7.31511749	     -8.00480413	     33.25521590
      1.28813559	     -2.98537341	     -2.62814039	     76.42296763	      0.26876448	      0.70964249	      0.68350570	      5.79016824	     -1.75549907	     -6.31259086	     16.29116884	      0.28433454	     18.74043968	     14.43408371	      0.00000000	      7.50114203	     -0.35475727	    -17.58129367	     21.13902930	      0.36894566	     17.29351570	     -8.11537324	      0.00000000	      0.18132059	      0.02652076	      0.97256174	      0.33673046	      0.03527261	      1.03334685	      0.29789159	      0.06448257	      1.03334685	      0.20723130	      0.06448257	      0.85099153	      0.16837430	      0.05408113	      0.79020642	      0.10360658	      0.04108065	      0.72942131	      1.29515481	      0.30000812	      5.40909665	      0.00000000	      0.00000000	     25.75061449	      6.52709162	      9.46069433	     12.36388726	     -1.52968607	     56.59496695	     98.80939020	     87.80059452	     21.13751800	     19.64325139	     13.50036954	     -4.78797934	     28.99665455	     99.36503819	     16.57720475	      2.69285965	     33.07432315
      1.30508475	     -2.72829773	     -2.70896366	     77.61799767	      0.26611007	      0.70965038	      0.68517148	      5.94808857	     -1.61406758	     -7.37615582	     16.53452889	      0.28858197	     18.80075266	     13.99181574	      0.00000000	      7.85998738	     -0.48871310	    -16.48554723	     21.34024514	      0.37245754	     17.25217238	     -7.99743142	      0.00000000	      0.16925139	      0.04124016	      1.03464723	      0.31431675	      0.05484941	      1.09931268	      0.27806311	      0.10027133	      1.09931268	      0.19343741	      0.10027133	      0.90531633	      0.15716684	      0.08409694	      0.84065087	      0.09671024	      0.06388101	      0.77598542	      1.20894575	      0.46651695	      5.75439750	      0.00000000	      0.00000000	     25.36709001	      5.69279150	      9.08681070	     11.60642352	     -2.17564609	     57.44913463	     99.87805247	     88.15218171	     15.74952395	     18.45718674	     14.66650347	     -4.63844893	     21.22707334	     97.67287091	     86.45501637	     29.29458622	     14.16965744
      1.32203390	     -2.72883663	     -2.76749007	     78.64540681	      0.26439653	      0.70927732	      0.68700873	      6.24693248	     -1.73121991	     -8.31562805	     16.97312294	      0.29623688	     19.06414562	     13.74194832	      0.00000000	      8.25069019	     -0.39423883	    -15.49126976	     21.52818768	      0.37573776	     17.17605059	     -8.02717982	      0.00000000	      0.16198045	      0.01403874	      1.08167833	      0.30081389	      0.01867152	      1.14928322	      0.26611767	      0.03413378	      1.14928322	      0.18512745	      0.03413378	      0.94646854	      0.15041504	      0.02862779	      0.87886364	      0.09255563	      0.02174600	      0.81125875	      1.15701013	      0.15880898	      6.01597036	      0.00000000	      0.00000000	     24.74499525	      4.92749816	      8.19453919	     11.00134909	     -2.53327603	     58.72951187	    100.43045220	     88.44935867	      9.83649332	     15.89399614	     16.45572957	     -6.30056959	     22.30432646	     98.10980973	     89.14199606	     31.28812504	     16.29752890
      1.33898305	     -2.62819398	     -2.82696228	     79.64850992	      0.26235118	      0.70907590	      0.68833757	      6.42142051	     -1.75747303	     -9.25454558	     17.25323104	      0.30112569	     19.22146574	     13.44968456	      0.00000000	      8.55789789	     -0.35939166	    -14.59249911	     21.65294456	      0.37791518	     17.17746706	     -8.06776549	      0.00000000	      0.16051997	      0.00541182	      1.04169717	      0.29810164	      0.00719772	      1.10680324	      0.26371826	      0.01315830	      1.10680324	      0.18345828	      0.01315830	      0.91148502	      0.14905885	      0.01103578	      0.84637895	      0.09172111	      0.00838291	      0.78127288	      1.14657810	      0.06121958	      5.79360715	      0.00000000	      0.00000000	     23.78090486	      4.06014058	      7.41467636	     10.71057647	     -2.83607106	     60.15535866	    100.67633642	     88.66394609	      5.43473662	     13.73752950	     18.26982895	     -6.66795925	     24.97063774	     98.85774772	     89.35652355	     39.05371307	     25.24978922
      1.35593220	     -2.46720871	     -2.81978896	     80.56792154	      0.26008697	      0.70913444	      0.68948270	      6.49577766	     -1.74619331	    -10.00551927	     17.48081685	      0.30509781	     19.24513688	     13.15531050	      0.00000000	      8.74230682	     -0.35342920	    -13.74140253	     21.72930056	      0.37924784	     17.09929224	     -8.02142198	      0.00000000	      0.15225491	      0.02004045	      0.95761507	      0.28275259	      0.02665380	      1.01746601	      0.25013959	      0.04872635	      1.01746601	      0.17401213	      0.04872635	      0.83791318	      0.14138391	      0.04086649	      0.77806224	      0.08699845	      0.03104266	      0.71821130	      1.08754157	      0.22670158	      5.32596771	      0.00000000	      0.00000000	     22.33542302	      3.23227998	      7.58781571	     10.63986099	     -3.01988159	     61.07967635	    100.65560247	     88.82350330	      3.93624347	     12.92768911	     20.14660097	     -6.29654502	     30.02815023	     98.97313373	     89.44759771	     45.87356403	     32.03955896
